<mxfile host="app.diagrams.net" modified="2024-04-16T03:09:10.609Z" agent="Mozilla/5.0 (Macintosh; Intel Mac OS X 10_15_7) AppleWebKit/537.36 (KHTML, like Gecko) Chrome/119.0.0.0 Safari/537.36" version="24.2.5" etag="NKkMmcO5jqozqZyChcHc" type="github">
  <diagram name="第 1 页" id="-u-DV1lfXEBN9TmRHup7">
    <mxGraphModel>
      <root>
        <mxCell id="0" />
        <mxCell id="1" parent="0" />
      </root>
    </mxGraphModel>
  </diagram>
</mxfile>
